<?xml version="1.0" encoding="utf-8"?>
<!-- Generator: Adobe Illustrator 18.1.1, SVG Export Plug-In . SVG Version: 6.00 Build 0)  -->
<svg version="1.1" id="Layer_1" xmlns="http://www.w3.org/2000/svg" xmlns:xlink="http://www.w3.org/1999/xlink" x="0px" y="0px"
	 viewBox="0 0 195 195" enable-background="new 0 0 195 195" xml:space="preserve">
<path fill="#FFFFFF" stroke="#D7D9DD" stroke-miterlimit="5" d="M194.7,98c0,53.3-43.2,96.5-96.5,96.5c-53.3,0-96.5-43.2-96.5-96.5
	c0-53.3,43.2-96.5,96.5-96.5C151.5,1.4,194.7,44.7,194.7,98z"/>
<g>
	<g>
		<g>
			<path fill="#D1D5D8" stroke="#FFFFFF" stroke-width="4" stroke-miterlimit="5" d="M98.4,120.9c-18.4,0-33.4-15-33.4-33.4V71.2
				c0-18.4,15-33.4,33.4-33.4c18.4,0,33.4,15,33.4,33.4v16.3C131.9,106,116.9,120.9,98.4,120.9z M98.4,43.1
				c-15.5,0-28.1,12.6-28.1,28.1v16.3c0,15.5,12.6,28.1,28.1,28.1c15.5,0,28.1-12.6,28.1-28.1V71.2C126.6,55.7,114,43.1,98.4,43.1z"
				/>
			<path fill="#D1D5D8" stroke="#FFFFFF" stroke-width="4" stroke-miterlimit="5" d="M143.1,158H53.3c-7.8,0-14.2-6.4-14.2-14.2
				v-12.4c0-4.6,2.3-10.8,13.4-14.1l13.4-3.7c1.4-0.4,2.9,0.4,3.3,1.8c0.4,1.4-0.4,2.9-1.8,3.3L54,122.4c-9.6,2.8-9.6,7.5-9.6,9
				v12.4c0,4.9,4,8.9,8.9,8.9h89.9c4.9,0,8.9-4,8.9-8.9v-12.4c0-4.1-3.2-7.2-9.6-9l-12.8-3.6c-1.4-0.4-2.2-1.8-1.8-3.3
				c0.4-1.4,1.8-2.2,3.3-1.8l12.8,3.6c11.1,3.2,13.5,9.4,13.5,14.1v12.4C157.3,151.7,151,158,143.1,158z"/>
		</g>
	</g>
</g>
</svg>
