<?xml version="1.0" encoding="utf-8"?>
<!-- Generator: Adobe Illustrator 18.1.1, SVG Export Plug-In . SVG Version: 6.00 Build 0)  -->
<svg version="1.1" id="Layer_1" xmlns="http://www.w3.org/2000/svg" xmlns:xlink="http://www.w3.org/1999/xlink" x="0px" y="0px"
	 viewBox="0 0 544.6 147.6" enable-background="new 0 0 544.6 147.6" xml:space="preserve">
<g>
	<path fill="none" stroke="#A6A6A6" stroke-width="1.0276" stroke-miterlimit="10" d="M85,64c1.4,0,2.6-1.1,2.6-2.6
		c0-1.4-1.1-2.6-2.6-2.6c-1.4,0-2.6,1.1-2.6,2.6C82.5,62.9,83.6,64,85,64"/>
	<path fill="#A2A7AA" d="M99.4,60.7c0-1.1,0.9-1.9,1.9-1.9c1.1,0,1.9,0.9,1.9,1.9v3.7h1v-3.7c0-1.6-1.3-2.9-2.9-2.9
		c-1.6,0-2.9,1.3-2.9,2.9v1.1h1V60.7z"/>
	<path fill="none" stroke="#A6A6A6" stroke-width="1.0276" stroke-miterlimit="10" d="M105.7,64.7H80.9c-0.3,0-0.5,0.2-0.5,0.5v2
		c0,0.3,0.2,0.5,0.5,0.5H81v0.8v0.1V69l0,0c0,3,2,4.9,4.9,4.9h7.8h-3.5h10.6c2.9,0,4.9-1.9,4.9-4.9l0,0v-0.3v-0.1v-0.8h0.1
		c0.3,0,0.5-0.2,0.5-0.5v-2C106.3,64.9,106,64.7,105.7,64.7"/>
</g>
<g>
	<g>
		<g>
			<path fill="#A2A7AA" stroke="#A6A6A6" stroke-width="0.5909" stroke-miterlimit="10" d="M150.4,69c-2.5,0-4.6-2.1-4.6-4.6v-2.2
				c0-2.5,2.1-4.6,4.6-4.6c2.5,0,4.6,2.1,4.6,4.6v2.2C155,66.9,153,69,150.4,69z M150.4,58.3c-2.1,0-3.9,1.7-3.9,3.9v2.2
				c0,2.1,1.7,3.9,3.9,3.9c2.1,0,3.9-1.7,3.9-3.9v-2.2C154.3,60,152.6,58.3,150.4,58.3z"/>
			<path fill="#A2A7AA" stroke="#A6A6A6" stroke-width="0.5909" stroke-miterlimit="10" d="M156.6,74.1h-12.3
				c-1.1,0-1.9-0.9-1.9-1.9v-1.7c0-0.6,0.3-1.5,1.8-1.9L146,68c0.2-0.1,0.4,0.1,0.4,0.3c0.1,0.2-0.1,0.4-0.3,0.5l-1.8,0.5
				c-1.3,0.4-1.3,1-1.3,1.2v1.7c0,0.7,0.5,1.2,1.2,1.2h12.3c0.7,0,1.2-0.5,1.2-1.2v-1.7c0-0.6-0.4-1-1.3-1.2l-1.8-0.5
				c-0.2-0.1-0.3-0.3-0.3-0.4c0.1-0.2,0.3-0.3,0.4-0.3l1.8,0.5c1.5,0.4,1.8,1.3,1.8,1.9v1.7C158.5,73.2,157.6,74.1,156.6,74.1z"/>
		</g>
	</g>
</g>
<g>
	<path fill="none" stroke="#A6A6A6" stroke-width="1.0276" stroke-miterlimit="10" d="M45.5,62.7c0-0.7-0.6-1.3-1.3-1.3
		c-0.7,0-1.3,0.6-1.3,1.3v6.8H19.1V59.4c0-0.7-0.6-1.3-1.3-1.3c-0.7,0-1.3,0.6-1.3,1.3v14.1h2.6v-1.4h23.8v1.4h2.6V62.7z"/>
	<path fill="none" stroke="#A6A6A6" stroke-width="1.0276" stroke-miterlimit="10" d="M27.4,62.3c-0.6,0-1.1,0.5-1.1,1l0,2.7l-4.7,0
		c-0.6,0-1.1,0.5-1.1,1c0,0.6,0.5,1,1.1,1l4.7,0l2.3,0l0-4.7C28.5,62.7,28,62.3,27.4,62.3"/>
	<path fill="none" stroke="#A6A6A6" stroke-width="1.0276" stroke-miterlimit="10" d="M41.5,63.8c0-0.9-0.8-1.6-1.8-1.6h-8.3
		c-1,0-1.8,0.7-1.8,1.6V68h11.9V63.8z"/>
	<path fill="none" stroke="#A5A5A5" stroke-width="0.8866" stroke-miterlimit="10" d="M24.9,62.8c0,1.1-0.9,2-2,2s-2-0.9-2-2
		c0-1.1,0.9-2,2-2S24.9,61.6,24.9,62.8"/>
</g>
<g>
	<g>
		<path fill="none" stroke="#D0D5D8" stroke-width="1.6" stroke-miterlimit="10" d="M78.4,37.4c0,0.6,0.4,1,1,1h16.2
			c0.6,0,1-0.4,1-1V5.2c0-0.6-0.4-1-1-1H79.4c-0.6,0-1,0.4-1,1V37.4z"/>
	</g>
	<g>
		<path fill="none" stroke="#D0D5D8" stroke-width="1.6" stroke-miterlimit="10" d="M81.3,13.4c0,0.6,0.4,1,1,1h10.4
			c0.6,0,1-0.4,1-1v-5c0-0.6-0.4-1-1-1H82.3c-0.6,0-1,0.4-1,1V13.4z"/>
	</g>
</g>
<g>
	<g>
		<path fill="none" stroke="#D0D5D8" stroke-width="1.6" stroke-miterlimit="10" d="M117.8,37.4c0,0.6,0.4,1,1,1h21.3
			c0.6,0,1-0.4,1-1V5.2c0-0.6-0.4-1-1-1h-21.3c-0.6,0-1,0.4-1,1V37.4z"/>
	</g>
	<g>
		<path fill="none" stroke="#D0D5D8" stroke-width="1.6" stroke-miterlimit="10" d="M123.1,13.3c0,0.6,0.4,1,1,1h10.4
			c0.6,0,1-0.4,1-1v-5c0-0.6-0.4-1-1-1h-10.4c-0.6,0-1,0.4-1,1V13.3z"/>
	</g>
</g>
<g>
	<g>
		<path fill="none" stroke="#D0D5D8" stroke-width="1.6" stroke-miterlimit="10" d="M160.2,37.4c0,0.6,0.4,1,1,1h33.7
			c0.6,0,1-0.4,1-1V5.2c0-0.6-0.4-1-1-1h-33.7c-0.6,0-1,0.4-1,1V37.4z"/>
	</g>
	<g>
		<path fill="none" stroke="#D0D5D8" stroke-width="1.6" stroke-miterlimit="10" d="M163.6,13.3c0,0.6,0.4,1,1,1H175
			c0.6,0,1-0.4,1-1v-5c0-0.6-0.4-1-1-1h-10.4c-0.6,0-1,0.4-1,1V13.3z"/>
	</g>
	<g>
		<path fill="none" stroke="#D0D5D8" stroke-width="1.6" stroke-miterlimit="10" d="M180,13.3c0,0.6,0.4,1,1,1h10.4c0.6,0,1-0.4,1-1
			v-5c0-0.6-0.4-1-1-1H181c-0.6,0-1,0.4-1,1V13.3z"/>
	</g>
</g>
<g>
	<g>
		<path fill="none" stroke="#D0D5D8" stroke-width="1.6" stroke-miterlimit="10" d="M213.5,37.4c0,0.6,0.4,1,1,1h38.7
			c0.6,0,1-0.4,1-1V5.2c0-0.6-0.4-1-1-1h-38.7c-0.6,0-1,0.4-1,1V37.4z"/>
	</g>
	<g>
		<path fill="none" stroke="#D0D5D8" stroke-width="1.6" stroke-miterlimit="10" d="M219.4,13.4c0,0.6,0.4,1,1,1h10.4
			c0.6,0,1-0.4,1-1v-5c0-0.6-0.4-1-1-1h-10.4c-0.6,0-1,0.4-1,1V13.4z"/>
	</g>
	<g>
		<path fill="none" stroke="#D0D5D8" stroke-width="1.6" stroke-miterlimit="10" d="M235.8,13.3c0,0.6,0.4,1,1,1h10.4
			c0.6,0,1-0.4,1-1v-5c0-0.6-0.4-1-1-1h-10.4c-0.6,0-1,0.4-1,1V13.3z"/>
	</g>
</g>
<g>
	<g>
		<path fill="none" stroke="#D0D5D8" stroke-width="1.6" stroke-miterlimit="10" d="M33.3,25.3c0,0.6,0.4,1,1,1h14.3
			c0.6,0,1-0.4,1-1v-3c0-0.6-0.4-1-1-1H34.3c-0.6,0-1,0.4-1,1V25.3z"/>
	</g>
	<g>
		<path fill="none" stroke="#D0D5D8" stroke-width="1.6" stroke-miterlimit="10" d="M33.3,16.5c0,0.6,0.4,1,1,1h14.3
			c0.6,0,1-0.4,1-1V6c0-0.6-0.4-1-1-1H34.3c-0.6,0-1,0.4-1,1V16.5z"/>
	</g>
	<g>
		<path fill="none" stroke="#D0D5D8" stroke-width="1.6" stroke-miterlimit="10" d="M4.5,22.2c0,0.6,0.4,1,1,1h4.3c0.6,0,1-0.4,1-1
			v-9.8c0-0.6-0.4-1-1-1H5.5c-0.6,0-1,0.4-1,1V22.2z"/>
	</g>
	<g>
		<path fill="none" stroke="#D0D5D8" stroke-width="1.6" stroke-miterlimit="10" d="M52.9,22.2c0,0.6,0.4,1,1,1h4.3c0.6,0,1-0.4,1-1
			v-9.8c0-0.6-0.4-1-1-1h-4.3c-0.6,0-1,0.4-1,1V22.2z"/>
	</g>
	<g>
		<path fill="none" stroke="#D0D5D8" stroke-width="1.6" stroke-miterlimit="10" d="M14,25.3c0,0.6,0.4,1,1,1h14.3c0.6,0,1-0.4,1-1
			v-3c0-0.6-0.4-1-1-1H15c-0.6,0-1,0.4-1,1V25.3z"/>
	</g>
	<g>
		<path fill="none" stroke="#D0D5D8" stroke-width="1.6" stroke-miterlimit="10" d="M14,16.6c0,0.6,0.4,1,1,1h14.3c0.6,0,1-0.4,1-1
			V6c0-0.6-0.4-1-1-1H15c-0.6,0-1,0.4-1,1V16.6z"/>
	</g>
</g>
<polygon fill="#D0D5D8" points="287.8,19.6 281.1,26.8 274,19.6 "/>
<path fill="#B2D93C" d="M344.7,19.7l-5.6,5.6l-2.3-2.3c-0.3-0.3-0.7-0.3-1,0c-0.3,0.3-0.3,0.7,0,1l2.8,2.8c0.1,0.1,0.3,0.2,0.5,0.2
	c0.2,0,0.4-0.1,0.5-0.2l0,0l6.1-6.1c0.3-0.3,0.3-0.7,0-1C345.4,19.4,345,19.4,344.7,19.7z"/>
<g>
	<path fill="#F7BF5C" d="M315.2,11.1c-4.2,0-7.5,3.4-7.5,7.5c0,1.7,0.6,3.3,1.6,4.6c0.2,0.3,0.4,0.5,0.6,0.8
		c0.6,0.7,1.2,1.4,1.4,2.2c0,0,0,0.2,0,0.7l0,0.1c0,0.4,0,1.1,0.4,1.5c0.3,0.3,0.7,0.5,1.3,0.5h4.1c0.6,0,1.1-0.2,1.4-0.5
		c0.4-0.4,0.4-1,0.4-1.4c0-0.1,0-0.1,0-0.2c0-0.6,0-0.7,0-0.7c0.2-0.8,0.9-1.6,1.5-2.3c0.2-0.2,0.4-0.5,0.6-0.7
		c1.1-1.3,1.6-2.9,1.6-4.6C322.8,14.5,319.4,11.1,315.2,11.1z M320,22.3c-0.2,0.2-0.3,0.4-0.5,0.7c-0.7,0.8-1.5,1.8-1.8,2.9
		c0,0.2-0.1,0.4-0.1,1.1c0,0.1,0,0.2,0,0.3c0,0.1,0,0.2,0,0.2c-0.1,0-0.1,0-0.3,0h-4.1c-0.1,0-0.2,0-0.2,0c0-0.1,0-0.3,0-0.4l0-0.1
		c0-0.7,0-1-0.1-1.1c-0.3-1.1-1.1-2-1.7-2.8c-0.2-0.2-0.4-0.5-0.6-0.7c-0.8-1.1-1.3-2.3-1.3-3.7c0-3.3,2.7-6,6-6c3.3,0,6,2.7,6,6
		C321.2,20,320.8,21.3,320,22.3z"/>
	<path fill="#F7BF5C" d="M317.1,29.7h-3.7c-0.8,0-1.5,0.7-1.5,1.5v1.1c0,0.8,0.7,1.5,1.5,1.5h3.7c0.8,0,1.5-0.7,1.5-1.5v-1.1
		C318.6,30.4,317.9,29.7,317.1,29.7z M317.1,32.3h-3.6v-1h3.6V32.3z"/>
	<path fill="#F7BF5C" d="M315.2,10.1c0.4,0,0.8-0.3,0.8-0.8V6.3c0-0.4-0.3-0.8-0.8-0.8c-0.4,0-0.8,0.3-0.8,0.8v3.1
		C314.5,9.8,314.8,10.1,315.2,10.1z"/>
	<path fill="#F7BF5C" d="M325.2,9c-0.3-0.3-0.8-0.3-1.1,0l-2.3,2.2c-0.3,0.3-0.3,0.8,0,1.1c0.1,0.2,0.3,0.2,0.5,0.2
		c0.2,0,0.4-0.1,0.5-0.2l2.3-2.2C325.5,9.8,325.5,9.3,325.2,9z"/>
	<path fill="#F7BF5C" d="M327.5,16.6C327.5,16.6,327.5,16.6,327.5,16.6l-3,0c-0.4,0-0.8,0.3-0.8,0.8c0,0.4,0.3,0.8,0.8,0.8
		c0,0,0,0,0,0l3,0c0.4,0,0.8-0.3,0.8-0.8C328.2,16.9,327.9,16.6,327.5,16.6z"/>
	<path fill="#F7BF5C" d="M308.3,12c0.3-0.3,0.3-0.8,0-1.1l-2.3-2.2c-0.3-0.3-0.8-0.3-1.1,0c-0.3,0.3-0.3,0.8,0,1.1l2.3,2.2
		c0.1,0.1,0.3,0.2,0.5,0.2C307.9,12.3,308.1,12.2,308.3,12z"/>
	<path fill="#F7BF5C" d="M305.3,16.6l-3,0h0c-0.4,0-0.8,0.3-0.8,0.8c0,0.4,0.3,0.8,0.8,0.8l3,0c0,0,0,0,0,0c0.4,0,0.8-0.3,0.8-0.8
		C306,16.9,305.7,16.6,305.3,16.6z"/>
</g>
<circle fill="none" stroke="#E95744" stroke-miterlimit="10" cx="416.8" cy="23.8" r="5.2"/>
<path fill="#FFFFFF" d="M368.1,20.9l-4.6,4.6l-1.8-1.8c-0.2-0.2-0.6-0.2-0.8,0c-0.2,0.2-0.2,0.6,0,0.8l2.3,2.3
	c0.1,0.1,0.3,0.2,0.4,0.2c0.1,0,0.3-0.1,0.4-0.2l0,0l5-5c0.2-0.2,0.2-0.6,0-0.8C368.7,20.7,368.3,20.7,368.1,20.9z"/>
<g>
	<g>
		<path fill="#DBDBDB" stroke="#DBDBDB" stroke-width="0.5" stroke-miterlimit="10" d="M249.7,73.4c-0.6-0.9-1.1-1.9-1.4-2.9
			c-0.3-1-0.6-2.5-0.8-4.4c-0.1-1.1-0.6-2-1.1-2.6c-0.2-0.3-0.5-0.6-0.9-0.8c-0.6-0.5-1.2-0.7-1.8-0.9c-0.1-0.4-0.3-0.7-0.6-1
			c-0.3-0.3-0.7-0.4-1.1-0.4c-0.4,0-0.8,0.1-1.1,0.4c-0.3,0.3-0.5,0.6-0.6,1c-0.6,0.2-1.1,0.4-1.8,0.9c-0.3,0.2-0.6,0.5-0.9,0.8
			c-0.5,0.6-0.9,1.5-1.1,2.6c-0.2,1.9-0.5,3.4-0.8,4.4c-0.3,1-0.8,2-1.4,2.9c-0.1,0.1-0.1,0.2-0.1,0.3c0,0.1,0,0.1,0.1,0.2
			c0.1,0.2,0.2,0.2,0.4,0.2h14.6c0.2,0,0.3-0.1,0.4-0.2c0-0.1,0.1-0.2,0.1-0.2C249.8,73.6,249.7,73.5,249.7,73.4z M235.6,73.2
			c0.5-0.9,0.9-1.8,1.2-2.9c0.3-1,0.5-2.4,0.7-4c0.2-1.4,0.9-2.4,1.7-2.9c0.6-0.4,1.1-0.6,1.7-0.7c0.2,0,0.3-0.2,0.3-0.4v0
			c0-0.4,0.4-0.8,0.8-0.8c0.5,0,0.8,0.4,0.8,0.8v0c0,0.2,0.2,0.4,0.4,0.4c0.6,0.1,1.1,0.3,1.7,0.7c0.3,0.2,0.5,0.4,0.8,0.7
			c0.4,0.5,0.8,1.3,0.9,2.2c0.2,1.7,0.5,3,0.7,4c0.3,1,0.7,2,1.2,2.9H235.6L235.6,73.2z"/>
	</g>
</g>
<g>
	<circle fill="#F7BF5C" cx="372.7" cy="68" r="14.1"/>
	<path fill="#D0D5D8" stroke="#FFFFFF" stroke-width="0.9193" stroke-miterlimit="10" d="M392,82.1c0.4-0.6,0.7-1.4,0.7-2.2
		c0-2.1-1.7-3.9-3.9-3.9c-0.1,0-0.2,0-0.2,0c0.1-0.4,0.2-0.9,0.2-1.3c0-2.3-1.9-4.2-4.2-4.2c-2,0-3.7,1.4-4.1,3.3
		c-0.7-1.1-2-1.8-3.3-1.8c-2.2,0-4.1,1.8-4.1,4.1c0,0.5,0.1,1,0.3,1.4c-0.3-0.1-0.7-0.2-1.1-0.2c-1.8,0-3.3,1.5-3.3,3.3
		c0,0.5,0.1,1,0.3,1.4H392z"/>
	<path fill="#D0D5D8" stroke="#FFFFFF" stroke-width="0.9193" stroke-miterlimit="10" d="M373.2,66c0.4-0.5,0.6-1.1,0.6-1.7
		c0-1.6-1.3-2.9-2.9-2.9c-0.5,0-0.9,0.1-1.3,0.3c0.1-0.3,0.1-0.6,0.1-0.9c0-2.5-2-4.5-4.5-4.5c-2,0-3.6,1.3-4.2,3.1
		c-0.6-0.8-1.6-1.3-2.7-1.3c-1.8,0-3.3,1.5-3.3,3.3c0,0.4,0.1,0.8,0.2,1.2c-1.3,0-2.4,1.1-2.4,2.4c0,0.4,0.1,0.7,0.2,1H373.2z"/>
</g>
<g>
	<g id="Shape_17_1_">
		<g>
			<path fill="#DADADA" stroke="#DADADA" stroke-width="0.6" stroke-miterlimit="10" d="M206.2,60.8c0-0.4-0.2-0.8-0.4-1.1
				c0,0,0,0,0,0c0,0,0,0,0,0c-0.3-0.3-0.8-0.5-1.3-0.5h-17.2c-0.5,0-0.9,0.2-1.3,0.5c0,0,0,0,0,0c0,0,0,0,0,0
				c-0.3,0.3-0.5,0.7-0.5,1.1v10.1c0,0.5,0.2,0.9,0.5,1.2c0,0,0,0,0,0c0,0,0,0,0,0c0.3,0.3,0.8,0.5,1.2,0.5h17.2
				c0.5,0,0.9-0.2,1.2-0.5c0,0,0,0,0,0c0,0,0,0,0,0c0.3-0.3,0.5-0.7,0.5-1.2L206.2,60.8L206.2,60.8z M199.4,65.3l6-4.9
				c0.1,0.1,0.1,0.3,0.1,0.4v10.1c0,0.1,0,0.3-0.1,0.4L199.4,65.3z M204.4,59.7c0.2,0,0.3,0,0.4,0.1l-9,7.5l-9-7.5
				c0.1-0.1,0.3-0.1,0.4-0.1H204.4z M186.3,71.2c0-0.1-0.1-0.2-0.1-0.4V60.8c0-0.1,0-0.3,0.1-0.4l6,4.9L186.3,71.2z M187.2,71.9
				c-0.2,0-0.3,0-0.5-0.1l6-6l2.8,2.3c0.1,0.1,0.2,0.1,0.2,0.1c0.1,0,0.2,0,0.2-0.1l2.8-2.3l6,6c-0.1,0.1-0.3,0.1-0.5,0.1H187.2
				L187.2,71.9z"/>
		</g>
	</g>
</g>
<circle fill="#E95744" stroke="#FFFFFF" stroke-width="1.2257" stroke-miterlimit="10" cx="266.2" cy="68.2" r="3.8"/>
<circle fill="none" stroke="#DADADA" stroke-miterlimit="10" cx="323.7" cy="65.8" r="15.9"/>
<g>
	<polygon fill="#FFFFFF" points="382.9,28.7 386.4,28.7 386.4,25.9 387.8,25.9 387.8,28.7 391.3,28.7 391.3,24.5 392.7,24.5 
		387.1,18.9 381.5,24.5 382.9,24.5 	"/>
</g>
<g>
	<circle fill="#F9CA62" cx="117.9" cy="107.2" r="16.7"/>
	<path fill="#828282" d="M103.1,92c0,0-2.4-0.9-3.2-0.5c-0.7,0.4-2.4,2.7-2.7,3.1c-0.5-0.2-3.3-1.1-4.1-1c-0.9,0.1-2.3,2.3-2.3,2.3
		s-0.9,1.3,0.1,0.2c1-1.1,2-1.8,2.5-1.7c0.3,0.1,1.7,0.4,2.8,0.6c0,0-0.1,0.1-0.1,0.1s-0.7,0.2-0.4,1.1c0,0,0.2-0.4,0.6-0.4
		c0.4,0.1,0.8,0.2,1.8,0.1c0.9-0.1,1.5,0,1.5,0s-1-0.5-2-0.8c0.7-0.8,2.1-2.5,2.4-2.8c0.3-0.4,1.6-0.3,3.1,0
		C104.6,92.5,103.1,92,103.1,92"/>
	<g>
		<g>
			<path fill="#A7CC4C" d="M28.2,107.4c0,6.3-3.8,9.6-8.5,9.6c-4.8,0-8.2-3.7-8.2-9.3c0-5.8,3.6-9.6,8.5-9.6
				C25,98.2,28.2,102,28.2,107.4z M14,107.7c0,3.9,2.1,7.4,5.8,7.4c3.7,0,5.8-3.4,5.8-7.6c0-3.6-1.9-7.4-5.8-7.4
				C16,100.1,14,103.7,14,107.7z"/>
			<path fill="#A7CC4C" d="M29.7,115.9c0-0.3,0.2-0.8,0.3-1l5.2-6.8c0.2-0.2,0.5-0.6,0.7-0.9l1-1.2c0.2-0.2,0.4-0.4,0.4-0.5
				s-0.3,0-0.6,0h-6c-0.3,0-0.6-0.3-0.6-0.6v-0.8c0-0.3,0.3-0.6,0.6-0.6h8.9c0.3,0,0.6,0.3,0.5,0.6l0,0.4c0,0.3-0.2,0.8-0.3,1
				l-5.2,6.7c-0.2,0.2-0.5,0.6-0.7,0.9l-1,1.2c-0.2,0.2-0.4,0.4-0.4,0.5s0.3,0,0.6,0h6.5c0.3,0,0.6,0.3,0.6,0.6v0.8
				c0,0.3-0.3,0.6-0.6,0.6h-9.5c-0.3,0-0.6-0.3-0.6-0.6V115.9z"/>
			<path fill="#2E9FFF" d="M56.7,115.4c0,0.3-0.2,0.6-0.5,0.7c0,0-2.6,0.8-5.1,0.8c-2.8,0-6.3-2.1-6.3-2.1c-0.3-0.2-0.6-0.5-0.8-0.8
				c0,0-2.2-3.5-2.2-6.3c0-5.4,3.8-9.4,9.9-9.4c2.1,0,4,0.7,4,0.7c0.3,0.1,0.5,0.4,0.4,0.7l-0.3,0.9c-0.1,0.3-0.4,0.5-0.7,0.3
				c0,0-1.7-0.6-3.5-0.6c-4.4,0-7.3,2.8-7.3,7.3c0,4.6,2.8,7.4,7,7.4c1.5,0,2.6-0.3,2.6-0.3c0.3-0.1,0.5-0.4,0.5-0.7v-4.3
				c0-0.3-0.3-0.6-0.6-0.6h-2.6c-0.3,0-0.6-0.3-0.6-0.6v-0.8c0-0.3,0.3-0.6,0.6-0.6h4.9c0.3,0,0.6,0.3,0.6,0.6V115.4z"/>
			<path fill="#2E9FFF" d="M62.1,110.6c-0.3,0-0.5,0.2-0.3,0.5c0,0,1.9,4,4.3,4c1.7,0,3.1-0.5,3.1-0.5c0.3-0.1,0.6,0.1,0.7,0.4
				l0.1,0.6c0.1,0.3-0.1,0.6-0.4,0.7c0,0-1.7,0.6-3.8,0.6c-4,0-6.4-2.7-6.4-6.6c0-3.9,2.3-7.1,6.1-7.1c4.3,0,5.4,3.8,5.4,6.2
				c0,0.5,0,0.6,0,0.6c0,0.3-0.3,0.6-0.6,0.6H62.1z M68,108.9c0.3,0,0.5-0.2,0.5-0.6c0,0-0.5-3.3-3.2-3.3c-2.4,0-3.5,3.3-3.5,3.3
				c-0.1,0.3,0.1,0.5,0.4,0.5H68z"/>
			<path fill="#2E9FFF" d="M76.1,100c0.3-0.1,0.5,0.1,0.5,0.4v2.6c0,0.3,0.3,0.6,0.6,0.6h2.3c0.3,0,0.6,0.3,0.6,0.6v0.7
				c0,0.3-0.3,0.6-0.6,0.6h-2.3c-0.3,0-0.6,0.3-0.6,0.6v5.9c0,0.3,0,0.8,0.1,1.1c0,0,0.4,2,1.7,2c0.6,0,0.8,0,0.8,0
				c0.3-0.1,0.6,0.1,0.6,0.4l0,0.7c0,0.3-0.2,0.6-0.5,0.7c0,0-0.7,0.2-1.6,0.2c-1.1,0-2.1-0.7-2.1-0.7c-0.3-0.2-0.6-0.5-0.7-0.8
				l-0.6-2.4c0-0.3,0-0.8,0-1.1v-6c0-0.3-0.3-0.6-0.6-0.6h-0.9c-0.3,0-0.6-0.3-0.6-0.6v-0.7c0-0.3,0.3-0.6,0.6-0.6h0.9
				c0.3,0,0.6-0.3,0.6-0.6v-2c0-0.3,0.2-0.6,0.5-0.7L76.1,100z"/>
			<path fill="#2E9FFF" d="M90.5,116.7c-0.3,0-0.6-0.2-0.6-0.6l-0.1-0.5c0-0.3-0.1-0.6-0.1-0.6s-0.2,0.2-0.5,0.4
				c0,0-1.7,1.6-3.6,1.6c-2.7,0-4-1.9-4-3.8c0-3.2,7.3-4.8,7.3-4.8c0.3-0.1,0.5-0.2,0.5-0.3s0-0.4-0.1-0.7c0,0-0.2-2.5-2.9-2.5
				c-1.2,0-2.9,0.7-2.9,0.7c-0.3,0.1-0.6,0-0.7-0.3l-0.2-0.5c-0.1-0.3,0-0.6,0.3-0.8c0,0,2.1-0.9,3.8-0.9c4,0,4.9,4.8,4.9,4.8
				c0.1,0.3,0.1,0.8,0.1,1.1v3.8c0,0.3,0,0.8,0,1.1l0.1,2c0,0.3-0.2,0.6-0.5,0.6H90.5z M89.6,110.6c0-0.3-0.3-0.5-0.6-0.5
				c0,0-5,0.4-5,2.9c0,1.5,1,2.3,2.2,2.3c1.7,0,2.9-1.7,2.9-1.7c0.2-0.3,0.3-0.6,0.4-0.7s0.1-0.8,0.1-1.1V110.6z"/>
			<path fill="#2E9FFF" d="M96.2,103.6c0.3,0,0.6,0.2,0.7,0.5l1.5,5.6c0.1,0.3,0.2,0.8,0.3,1.1l0.7,3.1c0.1,0.3,0.1,0.5,0.2,0.5
				s0.1-0.2,0.2-0.5l0.9-3.1c0.1-0.3,0.2-0.8,0.3-1.1l1.8-5.6c0.1-0.3,0.4-0.5,0.7-0.5h0.9c0.3,0,0.6,0.2,0.7,0.5l1.7,5.5
				c0.1,0.3,0.2,0.8,0.3,1.1l0.9,3.2c0.1,0.3,0.2,0.5,0.2,0.5s0.1-0.2,0.2-0.5l0.7-3.2c0.1-0.3,0.2-0.8,0.3-1.1l1.6-5.5
				c0.1-0.3,0.4-0.5,0.7-0.5h1.2c0.3,0,0.5,0.2,0.4,0.5l-3.9,12c-0.1,0.3-0.4,0.5-0.7,0.5h-1c-0.3,0-0.6-0.2-0.7-0.5l-1.7-5.2
				c-0.1-0.3-0.2-0.8-0.3-1.1l-0.9-3.2c-0.1-0.3-0.1-0.5-0.2-0.5s-0.1,0.2-0.2,0.5l-0.9,3.3c-0.1,0.3-0.2,0.8-0.3,1.1l-1.8,5.2
				c-0.1,0.3-0.4,0.5-0.7,0.5h-1c-0.3,0-0.6-0.2-0.7-0.5l-3.6-12c-0.1-0.3,0.1-0.5,0.4-0.5H96.2z"/>
			<path fill="#2E9FFF" d="M123.5,116.7c-0.3,0-0.6-0.2-0.6-0.6l-0.1-0.5c0-0.3-0.1-0.6-0.1-0.6s-0.2,0.2-0.5,0.4
				c0,0-1.7,1.6-3.6,1.6c-2.7,0-4-1.9-4-3.8c0-3.2,7.3-4.8,7.3-4.8c0.3-0.1,0.5-0.2,0.5-0.3s0-0.4-0.1-0.7c0,0-0.2-2.5-2.9-2.5
				c-1.2,0-2.9,0.7-2.9,0.7c-0.3,0.1-0.6,0-0.7-0.3l-0.2-0.5c-0.1-0.3,0-0.6,0.3-0.8c0,0,2.1-0.9,3.8-0.9c4,0,4.9,4.8,4.9,4.8
				c0.1,0.3,0.1,0.8,0.1,1.1v3.8c0,0.3,0,0.8,0,1.1l0.1,2c0,0.3-0.2,0.6-0.5,0.6H123.5z M122.6,110.6c0-0.3-0.3-0.5-0.6-0.5
				c0,0-5,0.4-5,2.9c0,1.5,1,2.3,2.2,2.3c1.7,0,2.9-1.7,2.9-1.7c0.2-0.3,0.3-0.6,0.4-0.7s0.1-0.8,0.1-1.1V110.6z"/>
			<path fill="#2E9FFF" d="M129,103.6c0.3,0,0.6,0.2,0.8,0.5l2.5,6.7c0.1,0.3,0.3,0.8,0.4,1.1l0.5,1.6c0.1,0.3,0.2,0.5,0.2,0.5
				s0.1-0.2,0.2-0.5l0.5-1.7c0.1-0.3,0.2-0.8,0.3-1.1l2.2-6.6c0.1-0.3,0.4-0.5,0.7-0.5h1.4c0.3,0,0.5,0.2,0.4,0.5l-3.2,8.3
				c-0.1,0.3-0.3,0.8-0.4,1l-3.9,7.2c-0.2,0.2-0.5,0.6-0.8,0.7l-1.9,1.1c-0.3,0.1-0.6-0.1-0.7-0.4l-0.3-0.9
				c-0.1-0.3,0.1-0.6,0.4-0.7l1.1-0.6c0.3-0.2,0.6-0.5,0.9-0.7l1.3-1.8c0.2-0.3,0.4-0.7,0.5-0.9c0,0,0,0,0-0.1c0-0.1,0-0.1,0-0.1
				c-0.1-0.3-0.3-0.7-0.4-1l-4.4-11c-0.1-0.3,0-0.5,0.3-0.5H129z"/>
			<path fill="#2E9FFF" d="M141,114.8c0.1-0.3,0.4-0.4,0.7-0.3c0,0,1.4,0.7,2.6,0.7c1.7,0,2.5-0.9,2.5-1.9c0-1.1-1.9-2.2-1.9-2.2
				c-0.3-0.1-0.7-0.4-1-0.6c0,0-3-1.8-3-3.4c0-2.1,1.7-3.8,4.5-3.8c1.3,0,2.7,0.6,2.7,0.6c0.3,0.1,0.4,0.5,0.3,0.7l-0.2,0.7
				c-0.1,0.3-0.4,0.4-0.7,0.3c0,0-1-0.5-2.2-0.5c-1.4,0-2.2,0.8-2.2,1.8c0,1.1,2,2,2,2c0.3,0.1,0.7,0.4,1,0.5c0,0,3,1.7,3,3.7
				c0,2.3-1.8,3.9-4.9,3.9c-1.4,0-3.2-0.7-3.2-0.7c-0.3-0.1-0.4-0.4-0.3-0.7L141,114.8z"/>
		</g>
	</g>
	<polygon fill="#D0D5D8" points="118.5,122.9 118.5,107.7 124.5,122.9 	"/>
	<polygon fill="#FFFFFF" points="118.5,122.9 118.5,107.7 112.5,122.9 	"/>
	<path fill="#828282" d="M108.1,125.9c0.8,0.1,19.3-0.6,20-0.5c0,0,1.3-2.6,3.2-2.6c0.7,0,0.5-0.4,0.1-0.6c-0.8,0-10,0.7-15.8,0.3
		c-5.8-0.4-12.8-2-14.3-2.2c-1.3-0.1-0.7,0.4-0.2,0.5c3.6,0.8,4.6,2.1,5.3,4.8c3.5,0.8,15.1-0.4,18.1-0.4c3.5,0-4.5,0.1,1.2-0.2"/>
	<path fill="#2E9FFF" d="M96.6,125.5c0,0,4-1.4,7.8,0.2c3.7,1.5,5.4,2.1,10,1.1c4.6-1.1,7.4-1.5,11.2-0.8c4.3,0.8,6.5,1.3,13-1.2
		c0,0-3.6,1.3-8.1,0.9c-4.5-0.4-6.4-2.1-13.4-0.7c-6.2,1.3-7.1,0.8-10.7-0.4C103.3,123.7,101,123.7,96.6,125.5"/>
	<path fill="#828282" d="M121.3,96.4c0,0-1.2-0.5-1.6-0.2c-0.4,0.2-1.2,1.4-1.4,1.6c-0.3-0.1-1.6-0.5-2-0.5
		c-0.5,0.1-1.2,1.1-1.2,1.1s-0.4,0.6,0.1,0.1c0.5-0.5,1-0.9,1.2-0.9c0.1,0,0.9,0.2,1.4,0.3c0,0,0,0,0,0s-0.3,0.1-0.2,0.5
		c0,0,0.1-0.2,0.3-0.2c0.2,0,0.4,0.1,0.9,0c0.5-0.1,0.8,0,0.8,0s-0.5-0.2-1-0.4c0.3-0.4,1.1-1.2,1.2-1.4c0.2-0.2,0.8-0.2,1.5,0
		C122.1,96.7,121.3,96.4,121.3,96.4"/>
	<path fill="#2E9FFF" d="M117.7,128.8c0,0,2.4-2,7.9-1.1c5.5,0.9,7.4,0.5,7.4,0.5s-3.1,0.9-6.5,0.4
		C123.2,128,120.6,127.6,117.7,128.8"/>
</g>
<g>
	<g>
		<path fill="#DBDBDB" d="M422.8,65c-0.6-1.7-2.3-2.9-4.2-2.9c-0.4,0-0.9,0.1-1.3,0.2c-1.1-1.8-3-2.9-5.3-2.9c-3.4,0-6.1,2.7-6.2,6
			c-1.2,0.7-2.1,2-2.1,3.6c0,2.3,1.8,4.1,4.1,4.1h4.1v-1.4H408c-1.5,0-2.7-1.2-2.7-2.7c0-1.3,0.9-2.4,2.1-2.7c0-0.2-0.1-0.5-0.1-0.8
			c0-2.7,2.2-4.8,4.8-4.8c2.2,0,4,1.4,4.6,3.4c0.5-0.4,1.2-0.7,1.9-0.7c1.6,0,2.9,1.2,3.1,2.7h0c1.5,0,2.7,1.2,2.7,2.7
			c0,1.5-1.2,2.7-2.7,2.7h-4.1v1.4h4.1c2.3,0,4.1-1.8,4.1-4.1C425.9,67.1,424.6,65.5,422.8,65z"/>
		<polygon fill="#DBDBDB" stroke="#FFFFFF" stroke-miterlimit="10" points="414.9,65.6 411.4,69.7 413.5,69.7 413.5,75.2 
			416.2,75.2 416.2,69.7 418.3,69.7 		"/>
	</g>
</g>
<g>
	<path fill="#CFD4D7" stroke="#CFD4D7" stroke-width="0.5" stroke-miterlimit="10" d="M465.9,54.1c-7.3,0-13.2,5.9-13.2,13.2
		c0,7.3,5.9,13.2,13.2,13.2c7.3,0,13.2-5.9,13.2-13.2C479,60,473.2,54.1,465.9,54.1z M465.9,78.8c-6.3,0-11.5-5.2-11.5-11.5
		s5.2-11.5,11.5-11.5c6.3,0,11.5,5.2,11.5,11.5S472.2,78.8,465.9,78.8z M470,67.8c0.3,0.5,0.5,1.1,0.5,1.9c0,1.1-0.3,2-1,2.7
		c-0.6,0.7-1.6,1.2-2.8,1.3v1.9h-1.6v-1.9c-2-0.2-3.3-1.4-3.8-3.6l2.4-0.6c0.2,1.4,1,2,2.2,2c0.6,0,1-0.1,1.3-0.4
		c0.3-0.3,0.4-0.6,0.4-1.1c0-0.4-0.1-0.7-0.4-1c-0.3-0.2-0.9-0.5-1.8-0.8c-0.9-0.3-1.5-0.6-2-0.9c-0.5-0.3-0.9-0.7-1.2-1.2
		c-0.3-0.5-0.5-1.1-0.5-1.8c0-0.9,0.3-1.7,0.8-2.5c0.5-0.7,1.4-1.2,2.5-1.3v-1.4h1.6v1.4c1.7,0.2,2.9,1.2,3.4,3l-2.1,0.9
		c-0.4-1.2-1.1-1.8-1.9-1.8c-0.4,0-0.8,0.1-1.1,0.4c-0.3,0.3-0.4,0.6-0.4,1c0,0.4,0.1,0.7,0.4,0.9c0.3,0.2,0.8,0.5,1.6,0.8
		c0.9,0.3,1.7,0.7,2.2,1C469.2,66.9,469.7,67.3,470,67.8z"/>
</g>
<path fill="none" stroke="#CFD4D7" stroke-width="1.5" stroke-miterlimit="10" d="M208.4,114.6c0,1.1-0.9,2-2,2h-21.1
	c-1.1,0-2-0.9-2-2v-13.8c0-1.1,0.9-2,2-2h21.1c1.1,0,2,0.9,2,2V114.6z"/>
<rect x="183.5" y="101.3" fill="#CFD4D7" width="24.8" height="4.3"/>
<rect x="200.4" y="112.5" fill="#CFD4D7" width="5.9" height="1.9"/>
<g>
	<g>
		<g>
			<g>
				<g>
					<path fill="#CFD4D7" stroke="#CFD4D7" stroke-miterlimit="10" d="M243.5,120.8h-2.8c-0.4,0-0.6,0-2-3.6l-1.1-0.5
						c-3,1.4-3.4,1.4-3.5,1.4h-0.2l-0.2-0.2l-2-1.9c-0.3-0.3-0.4-0.4,1.2-3.9l-0.5-1.1c-3.7-1.3-3.7-1.5-3.7-1.9v-2.8
						c0-0.4,0-0.6,3.6-2l0.5-1.1c-1.6-3.5-1.5-3.6-1.2-3.9l2.1-2.1l0.3,0c0.3,0,1.5,0.4,3.6,1.3l1.1-0.5c1.3-3.6,1.5-3.6,1.9-3.6
						h2.8c0.4,0,0.6,0,2,3.6l1.1,0.4c3-1.4,3.4-1.4,3.5-1.4h0.2l0.2,0.2l2,1.9c0.3,0.3,0.4,0.4-1.2,3.9l0.5,1.1
						c3.7,1.3,3.7,1.5,3.7,1.9v2.8c0,0.4,0,0.6-3.7,2l-0.5,1.1c1.6,3.5,1.5,3.6,1.2,3.9l-2.2,2.1l-0.3,0c-0.3,0-1.5-0.4-3.6-1.3
						l-1.1,0.5C244,120.8,243.9,120.8,243.5,120.8z M240.9,119.6h2.2c0.3-0.5,0.8-1.9,1.2-3.1l0.1-0.2l2-0.8l0.2,0.1
						c1.2,0.5,2.6,1.1,3.2,1.3l1.6-1.5c-0.2-0.5-0.8-1.9-1.3-3l-0.1-0.2l0.8-2l0.2-0.1c1.2-0.5,2.6-1,3.1-1.3v-2.1
						c-0.5-0.3-1.9-0.8-3.1-1.2l-0.2-0.1l-0.8-2l0.1-0.2c0.5-1.2,1.1-2.5,1.3-3.1l-1.6-1.5c-0.5,0.2-1.9,0.8-3.1,1.3l-0.2,0.1
						l-2-0.8l-0.1-0.2c-0.5-1.2-1.1-2.6-1.3-3.1h-2.2c-0.3,0.5-0.8,1.9-1.2,3.1l-0.1,0.2l-2,0.8l-0.2-0.1c-1.2-0.5-2.6-1.1-3.2-1.3
						l-1.6,1.5c0.2,0.5,0.8,1.9,1.3,3l0.1,0.2l-0.8,2l-0.2,0.1c-1.2,0.5-2.6,1-3.1,1.3v2.1c0.5,0.3,1.9,0.8,3.1,1.2l0.2,0.1l0.8,2
						l-0.1,0.2c-0.5,1.2-1.1,2.5-1.3,3.1l1.6,1.5c0.5-0.2,1.9-0.8,3.1-1.3l0.2-0.1l2,0.8l0.1,0.2
						C240.1,117.7,240.7,119.1,240.9,119.6z M242,112.2c-2.6,0-4.7-2.1-4.7-4.6c0-2.5,2.1-4.6,4.7-4.6c2.6,0,4.7,2.1,4.7,4.6
						C246.7,110.2,244.6,112.2,242,112.2z M242,104.2c-2,0-3.5,1.5-3.5,3.4c0,1.9,1.6,3.4,3.5,3.4c1.9,0,3.5-1.5,3.5-3.4
						C245.5,105.8,243.9,104.2,242,104.2z"/>
				</g>
			</g>
		</g>
	</g>
</g>
<g>
	<g>
		<path fill="#8B9397" d="M280.9,100.9c-3.7,0-6.8,3-6.8,6.8c0,3.7,3,6.8,6.8,6.8c3.7,0,6.8-3,6.8-6.8
			C287.7,103.9,284.6,100.9,280.9,100.9z M280.9,113.5c-3.2,0-5.9-2.6-5.9-5.9c0-3.2,2.6-5.9,5.9-5.9c3.2,0,5.9,2.6,5.9,5.9
			C286.8,110.9,284.1,113.5,280.9,113.5z"/>
		<path fill="#8B9397" d="M280.9,104c-1.2,0-2.2,1-2.2,2.2c0,0.2,0.2,0.4,0.4,0.4c0.2,0,0.4-0.2,0.4-0.4c0-0.7,0.6-1.3,1.3-1.3
			c0.7,0,1.3,0.6,1.3,1.3c0,0.7-0.6,1.3-1.3,1.3c-0.2,0-0.4,0.2-0.4,0.4v1.5c0,0.2,0.2,0.4,0.4,0.4c0.2,0,0.4-0.2,0.4-0.4v-1.1
			c1-0.2,1.7-1.1,1.7-2.1C283.1,105,282.1,104,280.9,104z"/>
		<path fill="#8B9397" d="M280.9,110.2c-0.3,0-0.6,0.3-0.6,0.6c0,0.3,0.3,0.6,0.6,0.6c0.3,0,0.6-0.2,0.6-0.6
			C281.5,110.4,281.2,110.2,280.9,110.2z"/>
	</g>
</g>
</svg>
